<svg width="24" height="24" viewBox="0 0 24 24" fill="none" xmlns="http://www.w3.org/2000/svg">
<path d="M17 3.50201C17 3.3694 16.9473 3.24222 16.8536 3.14845C16.7598 3.05469 16.6326 3.00201 16.5 3.00201H14C12.7411 2.9393 11.5086 3.3774 10.5717 4.22059C9.63485 5.06377 9.06978 6.2435 9 7.50201V10.202H6.5C6.36739 10.202 6.24021 10.2547 6.14645 10.3485C6.05268 10.4422 6 10.5694 6 10.702V13.302C6 13.4346 6.05268 13.5618 6.14645 13.6556C6.24021 13.7493 6.36739 13.802 6.5 13.802H9V20.502C9 20.6346 9.05268 20.7618 9.14645 20.8556C9.24021 20.9493 9.36739 21.002 9.5 21.002H12.5C12.6326 21.002 12.7598 20.9493 12.8536 20.8556C12.9473 20.7618 13 20.6346 13 20.502V13.802H15.62C15.7312 13.8036 15.8397 13.7681 15.9285 13.7011C16.0172 13.6341 16.0811 13.5394 16.11 13.432L16.83 10.832C16.8499 10.7581 16.8526 10.6807 16.8378 10.6056C16.8231 10.5305 16.7913 10.4598 16.7449 10.399C16.6985 10.3381 16.6388 10.2887 16.5704 10.2546C16.5019 10.2204 16.4265 10.2024 16.35 10.202H13V7.50201C13.0249 7.25448 13.1411 7.02512 13.326 6.8587C13.5109 6.69228 13.7512 6.60076 14 6.60201H16.5C16.6326 6.60201 16.7598 6.54933 16.8536 6.45556C16.9473 6.36179 17 6.23461 17 6.10201V3.50201Z" fill="white"/>
</svg>
