<svg width="24" height="24" viewBox="0 0 24 24" fill="none" xmlns="http://www.w3.org/2000/svg">
<path fill-rule="evenodd" clip-rule="evenodd" d="M16.939 3.00195C18.28 3.00195 19.57 3.53195 20.519 4.48295C21.469 5.43195 22 6.71195 22 8.05195V15.952C22 18.742 19.73 21.002 16.939 21.002H7.06C4.269 21.002 2 18.742 2 15.952V8.05195C2 5.26195 4.259 3.00195 7.06 3.00195H16.939ZM18.53 9.54195L18.61 9.46195C18.849 9.17195 18.849 8.75195 18.599 8.46195C18.46 8.31295 18.269 8.22195 18.07 8.20195C17.86 8.19095 17.66 8.26195 17.509 8.40195L13 12.002C12.42 12.483 11.589 12.483 11 12.002L6.5 8.40195C6.189 8.17195 5.759 8.20195 5.5 8.47195C5.23 8.74195 5.2 9.17195 5.429 9.47195L5.56 9.60195L10.11 13.152C10.67 13.592 11.349 13.832 12.06 13.832C12.769 13.832 13.46 13.592 14.019 13.152L18.53 9.54195Z" fill="white"/>
</svg>
