<svg width="24" height="24" viewBox="0 0 24 24" fill="none" xmlns="http://www.w3.org/2000/svg">
<path fill-rule="evenodd" clip-rule="evenodd" d="M3.5 10.3197C3.5 5.71984 7.34388 2.00195 11.9934 2.00195C16.6561 2.00195 20.5 5.71984 20.5 10.3197C20.5 12.6376 19.657 14.7896 18.2695 16.6135C16.7388 18.6255 14.8522 20.3784 12.7285 21.7544C12.2425 22.0724 11.8039 22.0964 11.2704 21.7544C9.13474 20.3784 7.24809 18.6255 5.7305 16.6135C4.34198 14.7896 3.5 12.6376 3.5 10.3197ZM9.19423 10.5787C9.19423 12.1197 10.4517 13.3316 11.9934 13.3316C13.5362 13.3316 14.8058 12.1197 14.8058 10.5787C14.8058 9.04975 13.5362 7.77879 11.9934 7.77879C10.4517 7.77879 9.19423 9.04975 9.19423 10.5787Z" fill="white"/>
</svg>
