<svg width="24" height="24" viewBox="0 0 24 24" fill="none" xmlns="http://www.w3.org/2000/svg">
<path d="M20.9461 8.30642C20.936 7.54905 20.7942 6.7992 20.5271 6.09042C20.2954 5.49257 19.9416 4.94962 19.4883 4.49625C19.0349 4.04288 18.4919 3.68907 17.8941 3.45742C17.1944 3.19478 16.4553 3.05276 15.7081 3.03742C14.7461 2.99442 14.4411 2.98242 11.9991 2.98242C9.55709 2.98242 9.24409 2.98242 8.28909 3.03742C7.54225 3.05288 6.80344 3.19489 6.10409 3.45742C5.50615 3.68891 4.96311 4.04267 4.50973 4.49605C4.05634 4.94944 3.70258 5.49248 3.47109 6.09042C3.20792 6.78955 3.06622 7.52853 3.05209 8.27542C3.00909 9.23842 2.99609 9.54342 2.99609 11.9854C2.99609 14.4274 2.99609 14.7394 3.05209 15.6954C3.06709 16.4434 3.20809 17.1814 3.47109 17.8824C3.70297 18.4802 4.05699 19.023 4.51053 19.4762C4.96407 19.9294 5.50716 20.283 6.10509 20.5144C6.80253 20.7876 7.54147 20.9398 8.29009 20.9644C9.25309 21.0074 9.55809 21.0204 12.0001 21.0204C14.4421 21.0204 14.7551 21.0204 15.7101 20.9644C16.4572 20.9497 17.1965 20.808 17.8961 20.5454C18.4938 20.3135 19.0366 19.9596 19.4899 19.5063C19.9433 19.0529 20.2972 18.5101 20.5291 17.9124C20.7921 17.2124 20.9331 16.4744 20.9481 15.7254C20.9911 14.7634 21.0041 14.4584 21.0041 12.0154C21.0021 9.57342 21.0021 9.26342 20.9461 8.30642ZM11.9931 16.6034C9.43909 16.6034 7.37009 14.5344 7.37009 11.9804C7.37009 9.42642 9.43909 7.35742 11.9931 7.35742C13.2192 7.35742 14.3951 7.84449 15.262 8.71147C16.129 9.57845 16.6161 10.7543 16.6161 11.9804C16.6161 13.2065 16.129 14.3824 15.262 15.2494C14.3951 16.1164 13.2192 16.6034 11.9931 16.6034ZM16.8001 8.26442C16.6585 8.26455 16.5183 8.23676 16.3874 8.18263C16.2566 8.1285 16.1377 8.0491 16.0375 7.94898C15.9374 7.84885 15.858 7.72996 15.8039 7.59911C15.7498 7.46826 15.722 7.32802 15.7221 7.18642C15.7221 7.04492 15.75 6.90481 15.8041 6.77408C15.8583 6.64335 15.9376 6.52457 16.0377 6.42451C16.1377 6.32446 16.2565 6.24509 16.3873 6.19094C16.518 6.13679 16.6581 6.10892 16.7996 6.10892C16.9411 6.10892 17.0812 6.13679 17.2119 6.19094C17.3427 6.24509 17.4614 6.32446 17.5615 6.42451C17.6616 6.52457 17.7409 6.64335 17.7951 6.77408C17.8492 6.90481 17.8771 7.04492 17.8771 7.18642C17.8771 7.78242 17.3951 8.26442 16.8001 8.26442Z" fill="white"/>
<path d="M11.9932 14.9845C13.6517 14.9845 14.9962 13.64 14.9962 11.9815C14.9962 10.323 13.6517 8.97852 11.9932 8.97852C10.3347 8.97852 8.99023 10.323 8.99023 11.9815C8.99023 13.64 10.3347 14.9845 11.9932 14.9845Z" fill="white"/>
</svg>
