<svg width="24" height="24" viewBox="0 0 24 24" fill="none" xmlns="http://www.w3.org/2000/svg">
<path d="M15.1508 8.40238C14.3843 8.39975 13.6249 8.54827 12.9159 8.83945C12.2069 9.13064 11.5623 9.55876 11.019 10.0993C10.4756 10.6399 10.0442 11.2823 9.74934 11.9898C9.45452 12.6973 9.30209 13.4559 9.30078 14.2224V20.1024C9.30078 20.3411 9.3956 20.57 9.56439 20.7388C9.73317 20.9076 9.96209 21.0024 10.2008 21.0024H12.3008C12.5395 21.0024 12.7684 20.9076 12.9372 20.7388C13.106 20.57 13.2008 20.3411 13.2008 20.1024V14.2224C13.2006 13.9498 13.2578 13.6802 13.3688 13.4312C13.4798 13.1822 13.642 12.9594 13.8448 12.7773C14.0477 12.5952 14.2867 12.4579 14.5461 12.3744C14.8056 12.2908 15.0798 12.2629 15.3508 12.2924C15.8368 12.3536 16.2834 12.591 16.606 12.9597C16.9286 13.3283 17.1046 13.8025 17.1008 14.2924V20.1024C17.1008 20.3411 17.1956 20.57 17.3644 20.7388C17.5332 20.9076 17.7621 21.0024 18.0008 21.0024H20.1008C20.3395 21.0024 20.5684 20.9076 20.7372 20.7388C20.906 20.57 21.0008 20.3411 21.0008 20.1024V14.2224C20.9995 13.4559 20.847 12.6973 20.5522 11.9898C20.2574 11.2823 19.826 10.6399 19.2826 10.0993C18.7393 9.55876 18.0946 9.13064 17.3857 8.83945C16.6767 8.54827 15.9172 8.39975 15.1508 8.40238Z" fill="white"/>
<path d="M6.6 9.30273H3.9C3.40294 9.30273 3 9.70568 3 10.2027V20.1027C3 20.5998 3.40294 21.0027 3.9 21.0027H6.6C7.09706 21.0027 7.5 20.5998 7.5 20.1027V10.2027C7.5 9.70568 7.09706 9.30273 6.6 9.30273Z" fill="white"/>
<path d="M5.25 7.50195C6.49264 7.50195 7.5 6.49459 7.5 5.25195C7.5 4.00931 6.49264 3.00195 5.25 3.00195C4.00736 3.00195 3 4.00931 3 5.25195C3 6.49459 4.00736 7.50195 5.25 7.50195Z" fill="white"/>
</svg>
