<svg width="123" height="43" viewBox="0 0 123 43" fill="none" xmlns="http://www.w3.org/2000/svg">
<g clip-path="url(#clip0_10346_368)">
<path d="M21.0588 42.1698C32.4616 42.1698 41.7054 32.9255 41.7054 21.5222C41.7054 10.1188 32.4616 0.874512 21.0588 0.874512C9.65594 0.874512 0.412109 10.1188 0.412109 21.5222C0.412109 32.9255 9.65594 42.1698 21.0588 42.1698Z" fill="#1C1C1C"/>
<path d="M21.059 42.5824C15.4322 42.5824 10.1473 40.3899 6.16986 36.4122C2.19239 32.4346 0 27.1495 0 21.5224C0 15.8953 2.19239 10.6102 6.16986 6.63256C10.1473 2.65489 15.4322 0.462402 21.059 0.462402C26.6858 0.462402 31.9706 2.65489 35.9481 6.63256C39.9256 10.6102 42.118 15.9004 42.118 21.5224C42.118 27.1444 39.9256 32.4346 35.9481 36.4122C31.9706 40.3899 26.6808 42.5824 21.059 42.5824ZM21.059 1.2871C9.90094 1.2871 0.82466 10.3638 0.82466 21.5224C0.82466 32.681 9.90094 41.7577 21.059 41.7577C32.217 41.7577 41.2933 32.681 41.2933 21.5224C41.2933 10.3638 32.217 1.2871 21.059 1.2871Z" fill="white"/>
<g opacity="0.98">
<path d="M12.2693 0.236328L7.42188 3.00712L7.58781 40.1286L12.2693 42.7636L43.4655 25.0678V18.3696L12.2693 0.236328Z" fill="#1C1C1C"/>
<path d="M12.2684 43L7.38078 40.2493V40.1286L7.21484 2.88645L12.2684 0L12.369 0.0603438L43.6708 18.254V25.1885L43.5652 25.2489L12.2634 43.005L12.2684 43ZM7.79311 40.008L12.2684 42.5273L43.2585 24.9471V18.4904L12.2684 0.477722L7.62717 3.12782L7.79311 40.008Z" fill="#1C1C1C"/>
</g>
<path d="M12.2693 0.236328L7.42188 3.00712L7.58781 40.1286L34.8921 24.4744L30.1 21.593L12.3447 31.8615L12.2693 0.236328Z" fill="white"/>
<path d="M7.46672 40.3396L7.30078 2.93649L12.3895 0.0249023L12.465 31.6501L30.0996 21.447L35.133 24.4792L7.46169 40.3446L7.46672 40.3396ZM7.54717 3.08232L7.71311 39.9172L34.6453 24.4742L30.0996 21.7336L12.2186 32.0775L12.1431 0.452338L7.54214 3.08232H7.54717Z" fill="#1C1C1C"/>
<path d="M43.4658 18.3696L12.2695 0.236328L12.345 31.8615L16.9661 29.1913L17.2225 8.59898L43.4658 24.0671V18.3696Z" fill="white"/>
<path d="M12.223 32.0775L12.1426 0.0249023L43.5903 18.3041V24.2881L17.342 8.82001L17.0905 29.2665L12.223 32.0826V32.0775ZM12.394 0.452338L12.4694 31.6451L16.8441 29.1157L17.1006 8.38252L43.3439 23.8456V18.4398L12.394 0.452338Z" fill="#1C1C1C"/>
<path d="M17.2204 8.59912L17.155 13.9043L34.8902 24.4746L7.58594 40.1288L12.2674 42.7638L43.4637 25.068V24.0673L17.2204 8.59912Z" fill="white"/>
<path d="M12.2688 42.9045L7.33594 40.1287L34.6452 24.4745L17.0307 13.9747L17.1011 8.38281L17.2872 8.49344L43.5958 23.9968V25.1383L43.5355 25.1735L12.2738 42.9045H12.2688ZM7.83878 40.1287L12.2688 42.6229L43.3444 24.9975V24.1426L17.3425 8.82031L17.2821 13.8389L35.138 24.4795L34.952 24.5851L7.83878 40.1287Z" fill="#1C1C1C"/>
<path d="M60.4621 11.2036H65.4301C68.6584 11.2036 70.2725 13.3307 70.2725 17.585C70.2725 19.2847 69.9859 20.6172 69.4126 21.5878C68.8394 22.5583 68.1304 23.1718 67.2756 23.4283C66.4207 23.6797 65.1636 23.8205 63.4992 23.8456V33.7269H60.457V11.2036H60.4621ZM63.5042 21.4922C64.7865 21.4922 65.7067 21.2307 66.2598 20.7128C66.8129 20.1948 67.0895 19.1489 67.0895 17.585C67.0895 16.0211 66.8481 14.9349 66.3654 14.3666C65.8827 13.8034 64.9273 13.5168 63.4992 13.5168V21.4922H63.5042Z" fill="white"/>
<path d="M96.8469 33.7269H93.6941L90.1642 23.1567H89.8977V33.7269H86.8555V11.2036H91.0643C94.4936 11.2036 96.2083 13.1246 96.2083 16.9664C96.2083 18.7114 95.9569 20.0239 95.449 20.9089C94.9412 21.794 94.1165 22.4577 92.975 22.9053L96.8469 33.7269ZM89.9027 21.0899C91.0793 21.0648 91.9342 20.7882 92.4571 20.2502C92.9801 19.7121 93.2416 18.7365 93.2416 17.3235C93.2416 15.9104 93.0052 15.0002 92.5275 14.4219C92.0498 13.8437 91.2352 13.557 90.0787 13.557H89.9027V21.0899Z" fill="white"/>
<path d="M123 11.2036L115.844 31.1975H122.311V33.7269H112.148L119.274 13.7682H113.018V11.2036H123.005H123Z" fill="white"/>
</g>
<defs>
<clipPath id="clip0_10346_368">
<rect width="123" height="43" fill="white"/>
</clipPath>
</defs>
</svg>
