<svg width="20" height="20" viewBox="0 0 20 20" fill="none" xmlns="http://www.w3.org/2000/svg">
<path d="M17.7072 13.7498C18.0523 13.7498 18.3322 14.0297 18.3322 14.3748C18.3322 14.6913 18.097 14.9528 17.7919 14.9942L17.7072 14.9998L13.7493 14.9997V13.7497L17.7072 13.7498ZM3.33268 8.33334H4.58205L4.58268 5.62529C4.58268 5.51023 4.67596 5.41696 4.79102 5.41696H15.2077C15.3228 5.41696 15.416 5.51023 15.416 5.62529V11.8755C15.416 11.9906 15.3228 12.0838 15.2077 12.0838H13.7493V13.3338H15.2077C16.0131 13.3338 16.666 12.6809 16.666 11.8755V5.62529C16.666 4.81988 16.0131 4.16696 15.2077 4.16696H4.79102C3.9856 4.16696 3.33268 4.81988 3.33268 5.62529V8.33334ZM6.45768 14.1667C6.11251 14.1667 5.83268 14.4465 5.83268 14.7917C5.83268 15.1368 6.11251 15.4167 6.45768 15.4167H8.54102C8.88618 15.4167 9.16601 15.1368 9.16601 14.7917C9.16601 14.4465 8.88618 14.1667 8.54102 14.1667H6.45768ZM3.54102 9.16668C2.50548 9.16668 1.66602 10.0062 1.66602 11.0417V15.625C1.66602 16.6605 2.50548 17.5 3.54102 17.5H11.041C12.0765 17.5 12.916 16.6605 12.916 15.625V11.0417C12.916 10.0062 12.0765 9.16668 11.041 9.16668H3.54102ZM2.91602 11.0417C2.91602 10.6965 3.19584 10.4167 3.54102 10.4167H11.041C11.3862 10.4167 11.666 10.6965 11.666 11.0417V15.625C11.666 15.9702 11.3862 16.25 11.041 16.25H3.54102C3.19584 16.25 2.91602 15.9702 2.91602 15.625V11.0417Z" fill="#DFDFDF"/>
</svg>
