<svg width="16" height="17" viewBox="0 0 16 17" fill="none" xmlns="http://www.w3.org/2000/svg">
<path d="M6.55723 1.85599C6.63225 1.88151 6.70553 1.91186 6.7766 1.94685L7.6318 2.36789C7.86387 2.48215 8.13587 2.48215 8.36793 2.36789L9.22313 1.94685C10.1315 1.49961 11.2305 1.87345 11.6777 2.78184L11.7267 2.89006L11.7685 3.00122L12.0755 3.90362C12.1589 4.14853 12.3512 4.34087 12.5961 4.42418L13.4985 4.73115C14.4571 5.05723 14.9698 6.09866 14.6437 7.05723C14.6182 7.13225 14.5879 7.20553 14.5529 7.2766L14.1318 8.1318C14.0175 8.36387 14.0175 8.63587 14.1318 8.86793L14.5529 9.72313C15.0001 10.6315 14.6263 11.7305 13.7179 12.1777C13.6468 12.2127 13.5735 12.2431 13.4985 12.2685L12.5961 12.5755C12.3512 12.6589 12.1589 12.8512 12.0755 13.0961L11.7685 13.9985C11.4425 14.9571 10.4011 15.4698 9.44247 15.1437C9.36747 15.1182 9.2942 15.0879 9.22313 15.0529L8.36793 14.6318C8.13587 14.5175 7.86387 14.5175 7.6318 14.6318L6.7766 15.0529C5.86822 15.5001 4.76926 15.1263 4.32202 14.2179C4.28702 14.1468 4.25667 14.0735 4.23115 13.9985L3.92418 13.0961C3.84087 12.8512 3.64853 12.6589 3.40362 12.5755L2.50122 12.2685C1.54264 11.9425 1.02991 10.9011 1.35599 9.94247C1.38151 9.86747 1.41186 9.7942 1.44685 9.72313L1.86789 8.86793C1.98215 8.63587 1.98215 8.36387 1.86789 8.1318L1.44685 7.2766C0.999612 6.36822 1.37345 5.26926 2.28184 4.82202C2.35293 4.78702 2.42621 4.75667 2.50122 4.73115L3.40362 4.42418C3.64853 4.34087 3.84087 4.14853 3.92418 3.90362L4.23115 3.00122C4.55723 2.04264 5.59866 1.52991 6.55723 1.85599ZM5.17787 3.32327L4.8709 4.22567C4.68761 4.76448 4.26448 5.18761 3.72567 5.3709L2.82327 5.67787C2.78917 5.68947 2.75587 5.70327 2.72355 5.71918C2.31065 5.92247 2.14072 6.42199 2.34401 6.8349L2.76505 7.69007C3.01643 8.20067 3.01643 8.79907 2.76505 9.30967L2.34401 10.1648C2.32811 10.1971 2.31431 10.2305 2.30271 10.2645C2.15449 10.7003 2.38755 11.1736 2.82327 11.3219L3.72567 11.6288C4.26448 11.8121 4.68761 12.2353 4.8709 12.7741L5.17787 13.6765C5.18947 13.7105 5.20327 13.7439 5.21918 13.7761C5.42247 14.1891 5.92199 14.359 6.3349 14.1557L7.19007 13.7347C7.70067 13.4833 8.29907 13.4833 8.80967 13.7347L9.6648 14.1557C9.69713 14.1716 9.73047 14.1854 9.76453 14.197C10.2003 14.3452 10.6736 14.1121 10.8219 13.6765L11.1288 12.7741C11.3121 12.2353 11.7353 11.8121 12.2741 11.6288L13.1765 11.3219C13.2105 11.3103 13.2439 11.2965 13.2761 11.2805C13.6891 11.0773 13.859 10.5777 13.6557 10.1648L13.2347 9.30967C12.9833 8.79907 12.9833 8.20067 13.2347 7.69007L13.6557 6.8349C13.6716 6.80259 13.6854 6.76928 13.697 6.73519C13.8452 6.29947 13.6121 5.82609 13.1765 5.67787L12.2741 5.3709C11.7353 5.18761 11.3121 4.76448 11.1288 4.22567L10.8219 3.32327L10.8028 3.27274L10.7805 3.22355L10.7391 3.14901C10.5151 2.79087 10.0519 2.65343 9.6648 2.84401L8.80967 3.26505C8.29907 3.51643 7.70067 3.51643 7.19007 3.26505L6.3349 2.84401C6.30259 2.82811 6.26928 2.81431 6.23519 2.80271C5.79947 2.65449 5.32609 2.88755 5.17787 3.32327ZM6.70013 10.0925L10.313 6.47964C10.5083 6.28438 10.8248 6.28438 11.0201 6.47964C11.1976 6.65715 11.2137 6.93493 11.0685 7.13067L11.0201 7.18673L7.02007 11.1867C6.82953 11.3773 6.52663 11.3802 6.3325 11.2053L6.28241 11.1533L4.61575 9.15327C4.43897 8.94113 4.46763 8.62587 4.67977 8.44907C4.87262 8.2884 5.15071 8.29747 5.33251 8.4598L5.38397 8.51313L6.70013 10.0925Z" fill="#F0F1F2"/>
</svg>
