<svg width="40" height="40" viewBox="0 0 40 40" fill="none" xmlns="http://www.w3.org/2000/svg">
<rect width="40" height="40" rx="20" fill="white"/>
<path d="M28.3503 19.9152C28.3548 17.7071 27.3963 15.6341 25.8387 14.072C24.2806 12.5094 22.2074 11.6497 20 11.6497C15.4419 11.6497 11.7345 15.357 11.7345 19.9107C11.7345 21.4733 12.1688 22.9912 12.9972 24.3076C12.9972 24.3076 12.9972 24.3076 12.9972 24.3076L13.1879 24.6111L12.3604 27.6409L12.3492 27.6817L12.3901 27.6709L15.4963 26.8566L15.7866 27.0299L15.7866 27.0299C17.0538 27.7822 18.509 28.1807 19.9955 28.1807C24.5488 28.1807 28.3503 24.4737 28.3503 19.9152ZM28.3503 19.9152L28.3259 19.9152H28.3503C28.3503 19.9152 28.3503 19.9152 28.3503 19.9152ZM11.4298 24.8725L11.4325 24.8627L11.4274 24.8539C10.5635 23.3531 10.1092 21.652 10.1092 19.9107C10.1092 14.4599 14.5447 10.0244 19.9955 10.0244C22.6364 10.0244 25.1212 11.0531 26.9872 12.9235C28.8536 14.7944 29.9756 17.2749 29.9756 19.9152C29.9756 25.3657 25.4422 29.8015 19.9955 29.8015H19.9911C18.3344 29.8015 16.709 29.3873 15.2662 28.5991L15.2577 28.5945L15.2483 28.5969L10.0347 29.9656L11.4298 24.8725ZM24.5023 22.0084L24.5026 22.0085C24.5436 22.0286 24.582 22.047 24.6179 22.0641C24.6909 22.099 24.7535 22.1289 24.8061 22.1585C24.8845 22.2027 24.9349 22.2433 24.9605 22.2925L24.9604 22.2925L24.9613 22.2939C24.9737 22.3143 24.9852 22.3594 24.9907 22.429C24.9962 22.4974 24.9957 22.5857 24.9868 22.6893C24.9692 22.8965 24.9182 23.1635 24.8163 23.4517C24.7164 23.7339 24.4243 24.007 24.0934 24.2194C23.7631 24.4315 23.4004 24.5792 23.1661 24.6142C22.7752 24.672 22.4275 24.6863 21.9822 24.6021C21.5362 24.5178 20.9912 24.3345 20.2061 23.9955C17.898 22.9968 16.3377 20.7669 16.0311 20.3288C16.0083 20.2962 15.9925 20.2736 15.9838 20.2621L15.9643 20.2768L15.984 20.2624C15.9809 20.2581 15.9772 20.2531 15.9731 20.2475C15.8978 20.1448 15.6603 19.8211 15.4364 19.3796C15.2 18.9135 14.9798 18.3182 14.9798 17.7143C14.9798 16.5854 15.5313 15.9944 15.7895 15.7177C15.8077 15.6982 15.8244 15.6803 15.8394 15.6639C16.0617 15.4242 16.3226 15.3637 16.4821 15.3637C16.6475 15.3637 16.8119 15.3637 16.9538 15.3726L16.9539 15.3726C16.9731 15.3737 16.9929 15.3737 17.0126 15.3736L17.0147 15.3736C17.0353 15.3736 17.0559 15.3736 17.0769 15.3748C17.1188 15.3772 17.1616 15.3844 17.2056 15.4049C17.2932 15.4459 17.3915 15.5433 17.4909 15.7817C17.5515 15.928 17.6374 16.1374 17.7301 16.3631C17.7942 16.5195 17.8617 16.6837 17.9261 16.8402C18.0831 17.2217 18.2232 17.559 18.2549 17.6225C18.3159 17.7444 18.3527 17.8785 18.2772 18.0338C18.0685 18.4513 17.8532 18.6765 17.6992 18.8376C17.68 18.8577 17.6617 18.8768 17.6446 18.8951C17.5677 18.9773 17.5087 19.0481 17.4876 19.1283C17.466 19.2105 17.4851 19.2974 17.5503 19.4096L17.5503 19.4096C18.0315 20.2354 18.5121 20.7925 19.0555 21.2343C19.5984 21.6759 20.2032 22.0017 20.9309 22.3655C21.0554 22.4289 21.1589 22.457 21.2513 22.4455C21.3447 22.4339 21.4223 22.3826 21.4961 22.2973C21.643 22.1281 22.1175 21.5731 22.2838 21.3215C22.3638 21.2004 22.4408 21.1537 22.5218 21.1442C22.6055 21.1344 22.6984 21.1633 22.8129 21.2059L22.8133 21.2061C22.9255 21.2457 23.2856 21.4145 23.6501 21.5901C24.0139 21.7653 24.3798 21.946 24.5023 22.0084Z" fill="#1C1C1C" stroke="#1C1C1C" stroke-width="0.0488281"/>
</svg>
