<svg width="24" height="24" viewBox="0 0 24 24" fill="none" xmlns="http://www.w3.org/2000/svg">
<path d="M5.528 24C2.552 24 0.632 22.112 0.632 19.168C0.632 16.064 2.488 14.24 6.136 14.24H8.024V10.72H6.136C2.488 10.72 0.632 8.896 0.632 5.792C0.632 2.848 2.552 0.959999 5.528 0.959999C9.112 0.959999 10.264 3.2 10.264 5.888V8.544H13.784V5.888C13.784 3.2 14.936 0.959999 18.52 0.959999C21.496 0.959999 23.416 2.848 23.416 5.792C23.416 8.896 21.56 10.72 17.912 10.72H16.024V14.24H17.912C21.56 14.24 23.416 16.064 23.416 19.168C23.416 22.112 21.496 24 18.52 24C14.936 24 13.784 21.76 13.784 19.072V16.416H10.264V19.072C10.264 21.76 9.112 24 5.528 24ZM16.024 5.824V8.544H17.912C20.184 8.544 21.144 7.616 21.144 5.792C21.144 3.904 20.024 3.168 18.52 3.168C16.856 3.168 16.024 4.192 16.024 5.824ZM6.136 8.544H8.024V5.824C8.024 4.192 7.192 3.168 5.528 3.168C4.024 3.168 2.904 3.904 2.904 5.792C2.904 7.616 3.864 8.544 6.136 8.544ZM10.264 14.24H13.784V10.72H10.264V14.24ZM5.528 21.792C7.192 21.792 8.024 20.768 8.024 19.136V16.416H6.136C3.864 16.416 2.904 17.344 2.904 19.168C2.904 21.056 4.024 21.792 5.528 21.792ZM16.024 19.136C16.024 20.768 16.856 21.792 18.52 21.792C20.024 21.792 21.144 21.056 21.144 19.168C21.144 17.344 20.184 16.416 17.912 16.416H16.024V19.136Z" fill="white"/>
</svg>
